<svg id="Icons" height="512" viewBox="0 0 74 74" width="512" xmlns="http://www.w3.org/2000/svg"><path d="m24 72a1 1 0 0 1 -1-1v-68a1 1 0 0 1 2 0v68a1 1 0 0 1 -1 1z"/><path d="m50 72a1 1 0 0 1 -1-1v-68a1 1 0 0 1 2 0v68a1 1 0 0 1 -1 1z"/><path d="m71 51h-68a1 1 0 0 1 0-2h68a1 1 0 0 1 0 2z"/><path d="m71 25h-68a1 1 0 0 1 0-2h68a1 1 0 0 1 0 2z"/><path d="m67 17.719a1 1 0 0 1 -.707-.293l-10-10a1 1 0 0 1 1.414-1.414l10 10a1 1 0 0 1 -.707 1.707z"/><path d="m57 17.719a1 1 0 0 1 -.707-1.707l10-10a1 1 0 0 1 1.414 1.414l-10 10a1 1 0 0 1 -.707.293z"/><path d="m17 43a1 1 0 0 1 -.707-.293l-10-10a1 1 0 0 1 1.414-1.414l10 10a1 1 0 0 1 -.707 1.707z"/><path d="m7 43a1 1 0 0 1 -.707-1.707l10-10a1 1 0 0 1 1.414 1.414l-10 10a1 1 0 0 1 -.707.293z"/><path d="m37 43a6 6 0 1 1 6-6 6.007 6.007 0 0 1 -6 6zm0-10a4 4 0 1 0 4 4 4 4 0 0 0 -4-4z"/><path d="m62 67a6 6 0 1 1 6-6 6.007 6.007 0 0 1 -6 6zm0-10a4 4 0 1 0 4 4 4 4 0 0 0 -4-4z"/><path d="m12 18a6 6 0 1 1 6-6 6.007 6.007 0 0 1 -6 6zm0-10a4 4 0 1 0 4 4 4 4 0 0 0 -4-4z"/></svg>